# xmcd CD database file
#
# Track frame offsets:
#	150
#	12784
#	31627
#	48739
#	69355
#	82648
#	101083
#	122102
#	140603
#	164007
#	177871
#	193787
#	212409
#	228271
#	245014
#	265466
#	286123
#	307788
#	326741
#
# Disc length: 4726 seconds
#
# Revision: 0
# Processed by: cddbd v1.5.2PL0 Copyright (c) Steve Scherf et al.
# Submitted via: CDex 1.51
#
DISCID=03127413
DTITLE=Joe Bataan - The Anthology Disc 1
DYEAR=2005
DGENRE=Jazz
TTITLE0=Mi Nube
TTITLE1=Muchacho Ordinario
TTITLE2=When Sunny Gets Blue
TTITLE3=Mujer Mia
TTITLE4=Fin
TTITLE5=Latin Strut
TTITLE6=Johnny
TTITLE7=Peace, Friendship, Solidarity
TTITLE8=Aftershower Funk
TTITLE9=Bonus Track
TTITLE10=Chico And The Man
TTITLE11=The Bottle (La Botella)
TTITLE12=X-Rated Symphony
TTITLE13=Laughing And Crying
TTITLE14=Hey Girl
TTITLE15=When You're Down (Funky Mambo)
TTITLE16=Woman Don't Want To Love Me
TTITLE17=Ordinary Guy
TTITLE18=What Good Is A Castle Parts 1 and 2
EXTD=YEAR: 2005
EXTT0=
EXTT1=
EXTT2=
EXTT3=
EXTT4=
EXTT5=
EXTT6=
EXTT7=
EXTT8=
EXTT9=
EXTT10=
EXTT11=
EXTT12=
EXTT13=
EXTT14=
EXTT15=
EXTT16=
EXTT17=
EXTT18=
PLAYORDER=
